<svg viewBox="0 0 633 586" fill="none" xmlns="http://www.w3.org/2000/svg">
  <g opacity="0.704632">
    <path fill-rule="evenodd" clip-rule="evenodd" d="M630.883 22.1035L485.863 61.9336L537.114 95.2794L557.108 153.017L630.883 22.1035Z" stroke="#FAD390" stroke-width="1.15702"/>
    <path d="M630.883 22.1036L537.114 95.2795" stroke="#FAD390" stroke-width="1.15702"/>
  </g>
  <path d="M524.786 104.442C512.252 115.077 465.09 150.789 447.557 165.5C411.362 195.867 385.893 215.559 364.087 257.145C320.703 339.888 363.246 386.941 393.995 402.825C425.182 418.935 458.416 417.198 464.662 394.235C470.18 373.961 448.375 360.787 429.638 358.261C374.323 350.804 331.041 380.779 285.149 407.751C252.7 426.822 152.795 479.24 81.4455 425.918C37.6075 393.158 57.6604 328.921 111.185 324.069C139.874 321.467 168.402 328.159 190.87 346C204.637 356.931 236.718 385.816 221.103 447.779C202.926 500.858 156.527 520.381 136.149 527.876C116.185 535.22 99.1058 540.329 79.4267 547.812C63.1546 554 42.0094 563.072 38.5369 580.352" stroke="#FAD390" stroke-dasharray="5"/>
</svg>