<svg xmlns="http://www.w3.org/2000/svg" id="Слой_1" x="0" y="0" version="1.1" viewBox="0 0 231.7 35" xml:space="preserve">
  <style>
    .st0{fill:#FFFFFF}
  </style>
  <switch>
    <g>
      <path d="M0 15.6L15.8 0l2.5 2.7-8.1 7.9v20.5h21.6V35H6.3V14.7l-3.8 3.7z" class="st0"/>
      <path d="M15.2 10v3.7h9.6L15 23.3v5.3l13-12.8v10.5h3.8V10z" class="st0"/>
      <g>
        <path d="M60.2 27.8h-3.3l-4.6-4.5c-.4-.4-.7-.8-.7-1.2v-.3c0-.6.4-1 1.2-1h2.6c.7 0 1.2-.2 1.4-.6.2-.3.3-1 .3-1.9 0-1-.2-1.6-.5-1.9-.3-.3-.8-.4-1.5-.4h-4.3c-.3 0-.5.1-.7.2-.1 0-.1.3-.1.7v10.9h-2.6V16.1c0-.8.2-1.4.6-1.8.4-.4.9-.6 1.7-.6h6.6c1.4 0 2.4.4 3 1.3.5.7.7 1.7.7 3.1 0 1.4-.2 2.4-.6 3.2-.5 1-1.4 1.4-2.6 1.4H55v.1l5.2 5zM73.2 27.8h-9.1c-.8 0-1.3-.1-1.6-.4-.3-.4-.5-1-.5-1.7v-9.9c0-.6.2-1.1.5-1.5.3-.4.9-.5 1.7-.5h9v2.1h-7.6c-.3 0-.6.1-.7.2-.1.1-.2.4-.2.7v2.8H73v2.1h-8.3V25c0 .3.1.4.2.6.1.1.4.2.9.2h7.5v2zM92.5 27.8h-2.6l.1-10.9c0-.3-.1-.4-.2-.4s-.2.2-.3.5l-3.6 9.3c-.2.6-.5 1-.7 1.2-.3.3-.7.4-1.3.4-.6 0-1.1-.2-1.4-.5-.2-.2-.4-.6-.6-1.2l-3.6-9.3c-.1-.3-.2-.5-.3-.5-.1 0-.2.1-.2.4l.1 10.9H75V15.4c0-1.2.8-1.8 2.3-1.8.7 0 1.3.2 1.7.5.3.2.5.7.8 1.3l3.6 9.3c.1.3.3.5.4.5.1 0 .2-.2.4-.5l3.6-9.3c.3-.7.6-1.2 1.1-1.5.3-.2.8-.3 1.4-.3 1.5 0 2.3.6 2.3 1.8v12.4zM107.1 15.9h-5.5v11.9H99V15.9h-5.5v-2.1h13.6v2.1zM119.3 27.8h-9.1c-.8 0-1.3-.1-1.6-.4-.3-.3-.5-.9-.5-1.6v-9.9c0-.6.2-1.1.5-1.5.3-.4.9-.5 1.7-.5h9V16h-7.6c-.3 0-.6.1-.7.2-.1.1-.2.4-.2.7v2.8h8.3v2.1h-8.3v3.3c0 .3.1.4.2.6.1.1.4.2.9.2h7.5v1.9zM133.1 27.8H130l-3.7-5.2-3.7 5.2h-3.1l5.4-7.1-5.2-6.9h3.1l3.6 5 3.6-5h3.1l-5.2 6.9 5.2 7.1zM147.1 25.9c0 1.3-.7 2-2.1 2-1 0-1.8-.4-2.3-1.2l-5.9-9.3c-.1-.2-.3-.3-.3-.3-.2 0-.3.1-.3.4v10.3h-2.6V15.5c0-.6.2-1.1.6-1.4.4-.3.9-.5 1.6-.5 1 0 1.8.4 2.2 1.1l5.9 9.4c.1.2.3.3.3.3.1 0 .2-.1.2-.3V13.8h2.6v12.1zM162.8 27.8H160l-1.4-3.5h-6.7l-1.4 3.5h-2.8l5.3-12.6c.3-.6.5-1 .9-1.2.3-.2.8-.3 1.4-.3.6 0 1.1.1 1.4.4.3.2.6.6.9 1.2l5.2 12.5zm-4.9-5.5l-2.3-5.7c-.2-.4-.3-.6-.4-.6-.1 0-.2.2-.4.6l-2.3 5.7h5.4zM174.6 27.8h-9.4c-.6 0-1-.1-1.3-.4-.3-.3-.5-.7-.5-1.2V13.8h2.6v11.1c0 .3.1.5.2.6.1.1.3.2.6.2h7.7v2.1z" class="st0"/>
        <path d="M188.8 27.8H186l-1.4-3.5h-6.7l-1.4 3.5h-2.8l5.3-12.6c.3-.6.5-1 .9-1.2.3-.2.8-.3 1.4-.3.6 0 1.1.1 1.4.4.3.2.6.6.9 1.2l5.2 12.5zm-4.9-5.5l-2.3-5.7c-.2-.4-.3-.6-.4-.6-.1 0-.2.2-.4.6l-2.3 5.7h5.4zM202.3 20.6c0 2.5-.4 4.3-1.2 5.4-.9 1.1-2.2 1.7-3.9 1.7h-5.7c-.7 0-1.2-.1-1.6-.4-.4-.3-.6-.8-.6-1.4V16c0-.7.2-1.3.5-1.7.3-.4.8-.6 1.5-.6h5.5c1.7 0 3.1.6 4.1 1.7.6.7 1 1.5 1.2 2.5.2.7.2 1.6.2 2.7zm-2.7-.2c0-1.7-.3-2.8-1-3.5-.7-.7-1.7-1-3-1h-2.7c-.3 0-.5 0-.6.1-.2.1-.3.4-.3.7v8c0 .4.1.6.2.8.1.1.3.2.7.2h3c1.5 0 2.5-.4 3-1.3.5-.8.7-2.1.7-4zM207 27.8h-2.6v-14h2.6v14zm10.8 0h-3.3l-5.8-5.4c-.6-.5-.9-1.2-.9-1.8 0-.6.2-1.1.7-1.6l5.3-5.2h3.3l-6 5.7c-.4.4-.7.8-.7 1 0 .4.3.8.8 1.3l6.6 6z" class="st0"/>
        <path d="M231.7 27.8h-2.8l-1.4-3.5h-6.7l-1.4 3.5h-2.8l5.3-12.6c.3-.6.5-1 .9-1.2.3-.2.8-.3 1.4-.3.6 0 1.1.1 1.4.4.3.2.6.6.9 1.2l5.2 12.5zm-4.9-5.5l-2.3-5.7c-.2-.4-.3-.6-.4-.6-.1 0-.2.2-.4.6l-2.3 5.7h5.4z" class="st0"/>
      </g>
    </g>
  </switch>
</svg>