<svg viewBox="0 0 167 26" fill="none" xmlns="http://www.w3.org/2000/svg">
  <path fill-rule="evenodd" clip-rule="evenodd" d="M35.0994 20.9C35.0331 20.8333 35 20.7524 35 20.6571V11.3571C35 11.2524 35.0308 11.1667 35.0923 11.1C35.1538 11.0333 35.2366 11 35.3407 11H39.0178C40.182 11 41.093 11.2714 41.7508 11.8143C42.4086 12.3571 42.7375 13.1286 42.7375 14.1286C42.7375 14.8238 42.5718 15.4071 42.2406 15.8786C41.9093 16.35 41.4455 16.6905 40.8493 16.9L42.9078 20.5429C42.9362 20.6 42.9504 20.6524 42.9504 20.7C42.9504 20.7857 42.9197 20.8571 42.8582 20.9143C42.7966 20.9714 42.728 21 42.6523 21H41.3462C41.1947 21 41.0764 20.9643 40.9912 20.8929C40.906 20.8214 40.8303 20.7286 40.7641 20.6143L38.9468 17.2286H37.0018V20.6571C37.0018 20.7524 36.9687 20.8333 36.9024 20.9C36.8362 20.9667 36.751 21 36.6469 21H35.3407C35.2461 21 35.1656 20.9667 35.0994 20.9ZM38.9752 15.6C39.5431 15.6 39.969 15.4738 40.253 15.2214C40.5369 14.969 40.6789 14.6 40.6789 14.1143C40.6789 13.6286 40.5369 13.2548 40.253 12.9929C39.969 12.731 39.5431 12.6 38.9752 12.6H37.0018V15.6H38.9752ZM45.3966 20.9C45.3304 20.8333 45.2972 20.7524 45.2972 20.6571V11.3571C45.2972 11.2524 45.328 11.1667 45.3895 11.1C45.451 11.0333 45.5339 11 45.638 11H51.8989C52.0031 11 52.0882 11.0333 52.1545 11.1C52.2207 11.1667 52.2539 11.2524 52.2539 11.3571V12.3143C52.2539 12.419 52.2207 12.5024 52.1545 12.5643C52.0882 12.6262 52.0031 12.6571 51.8989 12.6571H47.2423V15.1571H51.5866C51.6907 15.1571 51.7759 15.1905 51.8422 15.2571C51.9084 15.3238 51.9415 15.4095 51.9415 15.5143V16.4143C51.9415 16.519 51.9084 16.6024 51.8422 16.6643C51.7759 16.7262 51.6907 16.7571 51.5866 16.7571H47.2423V19.3429H52.0125C52.1166 19.3429 52.2018 19.3738 52.2681 19.4357C52.3343 19.4976 52.3675 19.581 52.3675 19.6857V20.6571C52.3675 20.7619 52.3343 20.8452 52.2681 20.9071C52.2018 20.969 52.1166 21 52.0125 21H45.638C45.5433 21 45.4629 20.9667 45.3966 20.9ZM54.9698 20.9C54.9035 20.8333 54.8704 20.7524 54.8704 20.6571V11.3571C54.8704 11.2524 54.9012 11.1667 54.9627 11.1C55.0242 11.0333 55.107 11 55.2112 11H56.3611C56.541 11 56.6829 11.0905 56.787 11.2714L59.5271 16.3857L62.2672 11.2714C62.3713 11.0905 62.5133 11 62.6931 11H63.8289C63.933 11 64.0182 11.0333 64.0844 11.1C64.1507 11.1667 64.1838 11.2524 64.1838 11.3571V20.6571C64.1838 20.7619 64.1507 20.8452 64.0844 20.9071C64.0182 20.969 63.933 21 63.8289 21H62.6079C62.5133 21 62.4328 20.9667 62.3665 20.9C62.3003 20.8333 62.2672 20.7524 62.2672 20.6571V14.5143L60.2938 18.2857C60.1896 18.4952 60.0335 18.6 59.8252 18.6H59.229C59.0302 18.6 58.8693 18.4952 58.7463 18.2857L56.7728 14.5143V20.6571C56.7728 20.7524 56.7421 20.8333 56.6806 20.9C56.619 20.9667 56.5362 21 56.4321 21H55.2112C55.1165 21 55.0361 20.9667 54.9698 20.9ZM69.4126 20.9C69.3464 20.8333 69.3132 20.7524 69.3132 20.6571V12.7857H66.6868C66.5921 12.7857 66.5117 12.7524 66.4454 12.6857C66.3792 12.619 66.346 12.5333 66.346 12.4286V11.3571C66.346 11.2524 66.3768 11.1667 66.4383 11.1C66.4998 11.0333 66.5826 11 66.6868 11H73.9415C74.0456 11 74.1308 11.0333 74.1971 11.1C74.2633 11.1667 74.2965 11.2524 74.2965 11.3571V12.4286C74.2965 12.5333 74.2633 12.619 74.1971 12.6857C74.1308 12.7524 74.0456 12.7857 73.9415 12.7857H71.3292V20.6571C71.3292 20.7524 71.2985 20.8333 71.237 20.9C71.1754 20.9667 71.0926 21 70.9885 21H69.654C69.5593 21 69.4789 20.9667 69.4126 20.9ZM76.5581 20.9C76.4918 20.8333 76.4587 20.7524 76.4587 20.6571V11.3571C76.4587 11.2524 76.4895 11.1667 76.551 11.1C76.6125 11.0333 76.6953 11 76.7994 11H83.0604C83.1645 11 83.2497 11.0333 83.316 11.1C83.3822 11.1667 83.4153 11.2524 83.4153 11.3571V12.3143C83.4153 12.419 83.3822 12.5024 83.316 12.5643C83.2497 12.6262 83.1645 12.6571 83.0604 12.6571H78.4037V15.1571H82.7481C82.8522 15.1571 82.9374 15.1905 83.0036 15.2571C83.0699 15.3238 83.103 15.4095 83.103 15.5143V16.4143C83.103 16.519 83.0699 16.6024 83.0036 16.6643C82.9374 16.7262 82.8522 16.7571 82.7481 16.7571H78.4037V19.3429H83.174C83.2781 19.3429 83.3633 19.3738 83.4295 19.4357C83.4958 19.4976 83.5289 19.581 83.5289 19.6857V20.6571C83.5289 20.7619 83.4958 20.8452 83.4295 20.9071C83.3633 20.969 83.2781 21 83.174 21H76.7994C76.7048 21 76.6243 20.9667 76.5581 20.9ZM86.1313 20.9C86.065 20.8333 86.0319 20.7524 86.0319 20.6571V11.3571C86.0319 11.2524 86.0626 11.1667 86.1242 11.1C86.1857 11.0333 86.2685 11 86.3726 11H87.6788C87.7829 11 87.8681 11.0333 87.9343 11.1C88.0006 11.1667 88.0337 11.2524 88.0337 11.3571V15.0286H92.1793V11.3571C92.1793 11.2524 92.2124 11.1667 92.2787 11.1C92.3449 11.0333 92.4254 11 92.52 11H93.8403C93.9445 11 94.0273 11.0333 94.0888 11.1C94.1503 11.1667 94.1811 11.2524 94.1811 11.3571V20.6571C94.1811 20.7524 94.1503 20.8333 94.0888 20.9C94.0273 20.9667 93.9445 21 93.8403 21H92.52C92.4254 21 92.3449 20.9667 92.2787 20.9C92.2124 20.8333 92.1793 20.7524 92.1793 20.6571V16.8429H88.0337V20.6571C88.0337 20.7524 88.0006 20.8333 87.9343 20.9C87.8681 20.9667 87.7829 21 87.6788 21H86.3726C86.278 21 86.1975 20.9667 86.1313 20.9ZM97.2235 20.9C97.1573 20.8333 97.1242 20.7524 97.1242 20.6571V11.3571C97.1242 11.2524 97.1549 11.1667 97.2164 11.1C97.278 11.0333 97.3608 11 97.4649 11H98.5723C98.7521 11 98.8893 11.081 98.984 11.2429L103.044 17.5857V11.3571C103.044 11.2524 103.075 11.1667 103.137 11.1C103.198 11.0333 103.281 11 103.385 11H104.606C104.71 11 104.795 11.0333 104.862 11.1C104.928 11.1667 104.961 11.2524 104.961 11.3571V20.6429C104.961 20.7476 104.928 20.8333 104.862 20.9C104.795 20.9667 104.715 21 104.62 21H103.499C103.309 21 103.167 20.919 103.073 20.7571L99.0266 14.5571V20.6571C99.0266 20.7524 98.9958 20.8333 98.9343 20.9C98.8728 20.9667 98.79 21 98.6859 21H97.4649C97.3702 21 97.2898 20.9667 97.2235 20.9ZM107.066 20.9143C107.01 20.8571 106.981 20.7857 106.981 20.7L107.01 20.5714L110.417 11.3571C110.512 11.119 110.682 11 110.928 11H112.49C112.736 11 112.906 11.119 113.001 11.3571L116.408 20.5714L116.437 20.7C116.437 20.7857 116.406 20.8571 116.344 20.9143C116.283 20.9714 116.214 21 116.138 21H114.875C114.676 21 114.539 20.9095 114.463 20.7286L113.81 19H109.608L108.955 20.7286C108.879 20.9095 108.742 21 108.543 21H107.279C107.194 21 107.123 20.9714 107.066 20.9143ZM110.105 17.3429H113.313L111.709 12.9429L110.105 17.3429ZM118.57 20.9C118.504 20.8333 118.471 20.7524 118.471 20.6571V11.3429C118.471 11.2381 118.504 11.1548 118.57 11.0929C118.637 11.031 118.717 11 118.812 11H120.146C120.25 11 120.333 11.031 120.395 11.0929C120.456 11.1548 120.487 11.2381 120.487 11.3429V19.2857H124.988C125.092 19.2857 125.177 19.319 125.243 19.3857C125.309 19.4524 125.343 19.5333 125.343 19.6286V20.6571C125.343 20.7524 125.309 20.8333 125.243 20.9C125.177 20.9667 125.092 21 124.988 21H118.812C118.717 21 118.637 20.9667 118.57 20.9ZM126.625 20.9143C126.568 20.8571 126.539 20.7857 126.539 20.7L126.568 20.5714L129.975 11.3571C130.07 11.119 130.24 11 130.486 11H132.048C132.294 11 132.464 11.119 132.559 11.3571L135.966 20.5714L135.995 20.7C135.995 20.7857 135.964 20.8571 135.902 20.9143C135.841 20.9714 135.772 21 135.697 21H134.433C134.234 21 134.097 20.9095 134.021 20.7286L133.368 19H129.166L128.513 20.7286C128.437 20.9095 128.3 21 128.101 21H126.838C126.752 21 126.681 20.9714 126.625 20.9143ZM129.663 17.3429H132.871L131.267 12.9429L129.663 17.3429ZM138.129 20.9C138.062 20.8333 138.029 20.7524 138.029 20.6571V11.3571C138.029 11.2524 138.06 11.1667 138.121 11.1C138.183 11.0333 138.266 11 138.37 11H141.834C144.626 11 146.051 12.2952 146.107 14.8857C146.126 15.4381 146.136 15.8095 146.136 16C146.136 16.181 146.126 16.5476 146.107 17.1C146.07 18.4333 145.712 19.4167 145.035 20.05C144.359 20.6833 143.315 21 141.905 21H138.37C138.275 21 138.195 20.9667 138.129 20.9ZM141.834 19.3429C142.62 19.3429 143.187 19.1667 143.538 18.8143C143.888 18.4619 144.072 17.8762 144.091 17.0571C144.11 16.4857 144.12 16.1286 144.12 15.9857C144.12 15.8333 144.11 15.481 144.091 14.9286C144.072 14.1476 143.878 13.5738 143.509 13.2071C143.14 12.8405 142.558 12.6571 141.763 12.6571H140.031V19.3429H141.834ZM148.838 20.9C148.771 20.8333 148.738 20.7524 148.738 20.6571V11.3571C148.738 11.2524 148.769 11.1667 148.83 11.1C148.892 11.0333 148.975 11 149.079 11H150.357C150.461 11 150.546 11.0333 150.612 11.1C150.678 11.1667 150.712 11.2524 150.712 11.3571V14.7L153.878 11.2571C154.019 11.0857 154.204 11 154.431 11H155.879C155.955 11 156.024 11.0286 156.085 11.0857C156.147 11.1429 156.177 11.2143 156.177 11.3C156.177 11.3667 156.154 11.4238 156.106 11.4714L152.245 15.7857L156.39 20.5143C156.428 20.581 156.447 20.6429 156.447 20.7C156.447 20.7857 156.419 20.8571 156.362 20.9143C156.305 20.9714 156.239 21 156.163 21H154.673C154.474 21 154.332 20.9595 154.247 20.8786C154.161 20.7976 154.114 20.7524 154.105 20.7429L150.712 16.9714V20.6571C150.712 20.7524 150.678 20.8333 150.612 20.9C150.546 20.9667 150.461 21 150.357 21H149.079C148.984 21 148.904 20.9667 148.838 20.9ZM157.63 20.9143C157.573 20.8571 157.545 20.7857 157.545 20.7L157.573 20.5714L160.98 11.3571C161.075 11.119 161.245 11 161.491 11H163.053C163.299 11 163.47 11.119 163.564 11.3571L166.972 20.5714L167 20.7C167 20.7857 166.969 20.8571 166.908 20.9143C166.846 20.9714 166.778 21 166.702 21H165.438C165.24 21 165.102 20.9095 165.027 20.7286L164.374 19H160.171L159.518 20.7286C159.442 20.9095 159.305 21 159.106 21H157.843C157.758 21 157.687 20.9714 157.63 20.9143ZM160.668 17.3429H163.877L162.272 12.9429L160.668 17.3429Z" fill="#6988CC"/>
  <path d="M16 23.936H2V9.76647L9.36842 2.30884" stroke="#6988CC" stroke-width="3" stroke-linecap="square"/>
  <path d="M8.63135 9.7666H15.9998V17.2242" stroke="#6988CC" stroke-width="3" stroke-linecap="square"/>
  <path d="M15.263 10.5122L7.15771 18.7156" stroke="#6988CC" stroke-width="3" stroke-linecap="square"/>
</svg>